<?xml version="1.0" standalone="no"?>
<!DOCTYPE svg PUBLIC "-//W3C//DTD SVG 20010904//EN"
 "http://www.w3.org/TR/2001/REC-SVG-20010904/DTD/svg10.dtd">
<svg version="1.0" xmlns="http://www.w3.org/2000/svg"
 width="700.000000pt" height="700.000000pt" viewBox="0 0 700.000000 700.000000"
 preserveAspectRatio="xMidYMid meet">
<metadata>
Created by potrace 1.14, written by Peter Selinger 2001-2017
</metadata>
<g transform="translate(0.000000,700.000000) scale(0.100000,-0.100000)"
fill="#000000" stroke="none">
<path d="M3285 6444 c-86 -15 -201 -47 -250 -69 -16 -7 -47 -20 -69 -29 -216
-89 -474 -342 -588 -578 -32 -67 -84 -211 -93 -260 -30 -162 -40 -392 -21
-484 3 -16 8 -45 11 -64 53 -335 307 -686 625 -863 63 -34 205 -95 239 -102 9
-1 34 -8 56 -13 130 -34 306 -44 470 -28 529 53 977 469 1081 1004 25 124 24
383 0 497 -56 261 -157 447 -346 635 -188 188 -373 289 -630 346 -100 22 -376
26 -485 8z"/>
<path d="M1459 3226 c-2 -2 -28 -7 -58 -10 -48 -6 -140 -28 -227 -54 -63 -19
-203 -90 -279 -142 -87 -59 -256 -218 -307 -289 -17 -25 -36 -47 -40 -49 -4
-2 -8 -7 -8 -12 0 -4 -18 -37 -39 -73 -107 -175 -160 -376 -163 -612 -5 -406
146 -731 459 -992 111 -93 317 -202 428 -228 11 -2 40 -10 65 -16 184 -46 449
-43 635 7 101 26 129 36 202 69 256 117 492 349 615 606 31 64 74 188 83 238
3 19 8 37 10 41 10 16 19 159 19 285 -2 287 -87 536 -259 755 -42 54 -194 198
-260 248 -105 78 -317 176 -426 197 -13 3 -37 7 -52 11 -16 3 -41 8 -55 11
-33 5 -338 13 -343 9z"/>
<path d="M5207 3214 c-81 -12 -205 -44 -252 -63 -164 -70 -302 -161 -420 -279
-284 -283 -408 -627 -372 -1037 3 -38 9 -81 12 -95 3 -14 8 -38 11 -55 43
-245 214 -518 437 -701 287 -235 710 -325 1096 -233 92 21 256 83 282 105 8 8
19 14 24 14 25 0 192 127 276 210 183 181 294 381 345 620 21 101 29 324 15
430 -16 126 -21 147 -48 235 -96 307 -340 589 -640 738 -219 109 -506 151
-766 111z"/>
</g>
</svg>
